<?xml version="1.0" standalone="no"?>
<!DOCTYPE svg PUBLIC "-//W3C//DTD SVG 20010904//EN"
 "http://www.w3.org/TR/2001/REC-SVG-20010904/DTD/svg10.dtd">
<svg version="1.0" xmlns="http://www.w3.org/2000/svg"
 width="500.000000pt" height="500.000000pt" viewBox="0 0 500.000000 500.000000"
 preserveAspectRatio="xMidYMid meet">

<g transform="translate(0.000000,500.000000) scale(0.100000,-0.100000)"
fill="#000000" stroke="none">
<path d="M1980 3659 c0 -5 8 -9 18 -9 10 0 28 -7 41 -16 l23 -16 -7 -272 c-4
-149 -11 -281 -16 -293 -5 -13 -23 -29 -41 -37 -32 -14 -28 -14 67 -14 92 0
97 1 65 12 -60 22 -63 37 -55 313 4 134 11 241 15 236 3 -4 51 -106 105 -226
54 -120 102 -220 105 -222 3 -2 13 8 22 23 15 26 14 31 -53 177 -103 224 -162
345 -168 346 -33 6 -121 5 -121 -2z"/>
<path d="M2625 3649 c-13 -13 -195 -421 -195 -435 0 -2 4 -4 9 -4 5 0 44 82
87 181 88 204 91 205 93 34 l1 -101 31 -18 32 -19 -6 24 c-3 13 -7 88 -8 166
-2 152 4 173 45 173 11 0 26 4 33 8 6 4 -15 7 -48 7 -42 0 -64 -4 -74 -16z"/>
<path d="M2768 3412 c-37 -53 -151 -216 -254 -362 -322 -457 -346 -492 -340
-497 3 -4 7 -4 9 -2 9 12 207 293 299 424 57 83 164 234 236 337 73 103 132
190 132 193 0 19 -23 -8 -82 -93z"/>
<path d="M2927 3128 c2 -5 13 -8 23 -8 11 0 26 -11 35 -24 13 -19 15 -62 13
-279 l-3 -257 -130 164 c-71 91 -133 165 -137 165 -4 1 -30 15 -56 31 -27 17
-52 30 -56 30 -4 0 17 -29 46 -63 29 -35 117 -143 196 -240 78 -97 147 -179
152 -182 6 -4 10 100 10 288 0 325 4 354 51 364 55 11 29 19 -60 18 -49 0 -87
-3 -84 -7z"/>
<path d="M2498 2814 c-5 -4 -8 -64 -9 -133 -1 -155 -5 -171 -49 -193 l-35 -17
95 0 c89 0 93 1 64 13 -18 8 -36 20 -40 28 -5 7 -11 80 -14 161 -3 82 -8 145
-12 141z"/>
<path d="M1460 1885 c0 -88 18 -102 22 -17 l3 57 24 -47 c14 -27 29 -48 33
-48 4 0 19 21 32 48 l25 47 1 -57 c0 -32 5 -58 10 -58 6 0 10 32 10 75 0 90
-16 100 -49 30 -12 -25 -25 -45 -29 -45 -4 0 -18 20 -30 45 -34 71 -52 60 -52
-30z"/>
<path d="M1791 1942 c-5 -9 -21 -43 -35 -75 -19 -43 -21 -57 -11 -57 7 0 17 9
20 20 5 16 15 20 47 20 31 0 41 -4 45 -20 3 -11 12 -20 20 -20 8 0 13 4 11 8
-58 142 -76 164 -97 124z m38 -42 c10 -29 9 -30 -19 -30 -27 0 -28 1 -17 30 6
17 14 30 18 30 4 0 12 -13 18 -30z"/>
<path d="M2027 1948 c-65 -50 -15 -149 68 -134 31 6 35 11 35 36 0 35 -17 40
-22 8 -7 -49 -88 -23 -88 28 0 38 28 57 72 50 21 -3 38 -2 38 3 0 22 -76 29
-103 9z"/>
<path d="M2260 1884 c0 -54 3 -75 12 -72 6 2 11 19 11 36 -1 18 -2 50 -2 72
-2 75 -21 42 -21 -36z"/>
<path d="M2560 1884 c0 -56 3 -75 13 -71 8 2 11 20 9 50 -1 26 1 47 6 47 4 0
25 -22 45 -50 21 -27 42 -50 47 -50 6 0 10 33 10 75 0 85 -17 103 -22 23 l-3
-53 -38 53 c-55 74 -67 70 -67 -24z"/>
<path d="M2842 1889 c-33 -73 -34 -102 -4 -61 22 28 70 27 94 -2 9 -11 19 -18
23 -14 10 10 -50 143 -67 146 -10 2 -25 -21 -46 -69z m63 4 c5 -20 3 -23 -19
-23 -30 0 -30 0 -14 35 12 27 22 24 33 -12z"/>
<path d="M3080 1885 c0 -43 4 -75 10 -75 6 0 10 32 10 75 0 43 -4 75 -10 75
-6 0 -10 -32 -10 -75z"/>
<path d="M3230 1885 l0 -75 45 0 c25 0 45 5 45 10 0 6 -13 10 -29 10 -34 0
-41 14 -41 81 0 27 -4 49 -10 49 -6 0 -10 -32 -10 -75z"/>
<path d="M3453 1954 c-7 -3 -13 -16 -13 -30 0 -18 10 -29 40 -44 22 -11 40
-24 40 -29 0 -15 -29 -21 -56 -10 -15 5 -29 7 -31 5 -10 -10 8 -25 37 -31 71
-16 99 51 34 82 -45 22 -45 38 2 37 46 -2 39 20 -7 23 -19 1 -40 0 -46 -3z"/>
</g>
</svg>
